# xmcd
#
# Track frame offsets:
#	150
#	18109
#	39477
#	85929
#	118857
#	140931
#	170428
#	199461
#	233623
#	274814
#	325995
#
# Disc length: 4741 seconds
#
# Revision: 0
# Processed by: cddbd v1.5.2PL0 Copyright (c) Steve Scherf et al.
# Submitted via: audiograbber 1.83.01
#
DISCID=9c12830b
DTITLE=Grateful Dead - 93-04-02 Nassau Veterans Memorial Coliseum, Uniondale NY
DYEAR=1900
DGENRE=
TTITLE0=Help On The Way
TTITLE1=Slipknot!
TTITLE2=Franklin's Tower
TTITLE3=The Same Thing
TTITLE4=Jack-A-Roe
TTITLE5=Queen Jane Approximately
TTITLE6=Brown Eyed Women
TTITLE7=Picasso Moon
TTITLE8=Scarlet Begonias
TTITLE9=Fire On The Mountain
TTITLE10=Men Smart, Women Are Smarter
EXTD=
EXTT0=
EXTT1=
EXTT2=
EXTT3=
EXTT4=
EXTT5=
EXTT6=
EXTT7=
EXTT8=
EXTT9=
EXTT10=
PLAYORDER=
